{"title":"UEFA.Europa.League.2016-03-10.HDTV.1080p.2ch.x265.10bit.[S-Less]","uid":13867723,"size":365843849,"categoryP":"video","categoryS":"hd___tv_shows","magnet":"?xt=urn:btih:02ca71d3e5c05edb956dfc1a9c796a7107d48c66&amp;dn=UEFA.Europa.League.2016-03-10.HDTV.1080p.2ch.x265.10bit.%5BS-Less%5D&amp;tr=udp%3A%2F%2Ftracker.leechers-paradise.org%3A6969&amp;tr=udp%3A%2F%2Fzer0day.ch%3A1337&amp;tr=udp%3A%2F%2Fopen.demonii.com%3A1337&amp;tr=udp%3A%2F%2Ftracker.coppersurfer.tk%3A6969&amp;tr=udp%3A%2F%2Fexodus.desync.com%3A6969","seeders":0,"leechers":1,"uploader":"soulessness","files":1,"time":1458081052,"description":"UEL.Highlights.2016-03-10.ITV.HDTV.1080p.2ch.x265.10bit.[S-Less]\r\n\r\nMark Pougatch presents action from the last-16 first-leg ties, as the teams attempted to secure an advantage ahead of the second-leg matches that will take place next week. Fixtures included Liverpool v Manchester United at Anfield, and Borussia Dortmund v Tottenham Hotspur at Signal Iduna Park. Presented by Mark Pougatch and Jacqui Oatley, with analysis from Robbie Fowler, Louis Saha and Glenn Hoddle, and commentary by Clive Tyldesley and Sam Matterface\r\n\r\nMediaInfo:\r\n\r\nVideo\r\nID : 1\r\nFormat : HEVC\r\nFormat/Info : High Efficiency Video Coding\r\nFormat profile : Main   @Main\r\nCodec ID : V_MPEGH/ISO/HEVC\r\nDuration : 48mn 52s\r\nBit rate : 900 Kbps\r\nWidth : 1 912 pixels\r\nHeight : 1 080 pixels\r\nDisplay aspect ratio : 16:9\r\nFrame rate mode : Constant\r\nFrame rate : 25.000 fps\r\nColor space : YUV\r\nChroma subsampling : 4:2:0\r\nBit depth : 10 bits\r\nBits/(Pixel*Frame) : 0.017\r\nStream size : 315 MiB (90%)\r\nWriting library : x265 1.8+2-55a4a9b920ff:[Windows][GCC 5.2.0][64 bit] 10bit\r\n\r\nDefault : Yes\r\nForced : No\r\n\r\nAudio\r\nID : 2\r\nFormat : AAC\r\nFormat/Info : Advanced Audio Codec\r\nFormat profile : LC\r\nCodec ID : A_AAC\r\nDuration : 48mn 52s\r\nBit rate : 96.0 Kbps\r\nChannel(s) : 2 channels\r\nChannel positions : Front: L R\r\nSampling rate : 48.0 KHz\r\nFrame rate : 46.875 fps (1024 spf)\r\nCompression mode : Lossy\r\nDelay relative to video : 9ms\r\nStream size : 33.6 MiB (10%)\r\nLanguage : English\r\nDefault : Yes\r\nForced : No","torrent":{"xt":"urn:btih:02ca71d3e5c05edb956dfc1a9c796a7107d48c66","amp;dn":"UEFA.Europa.League.2016-03-10.HDTV.1080p.2ch.x265.10bit.%5BS-Less%5D","amp;tr":["udp%3A%2F%2Ftracker.leechers-paradise.org%3A6969","udp%3A%2F%2Fzer0day.ch%3A1337","udp%3A%2F%2Fopen.demonii.com%3A1337","udp%3A%2F%2Ftracker.coppersurfer.tk%3A6969","udp%3A%2F%2Fexodus.desync.com%3A6969"],"infoHash":"02ca71d3e5c05edb956dfc1a9c796a7107d48c66","infoHashBuffer":{"type":"Buffer","data":[2,202,113,211,229,192,94,219,149,109,252,26,156,121,106,113,7,212,140,102]},"announce":[],"urlList":[]}}